<?xml version="1.0" standalone="no"?>
<svg xmlns="http://www.w3.org/2000/svg" width="300" height="300"><defs><clipPath id="clip-path-dot-color"><circle cx="6" cy="126" r="6" transform="rotate(0,6,126)"/><circle cx="6" cy="150" r="6" transform="rotate(0,6,150)"/><circle cx="6" cy="174" r="6" transform="rotate(0,6,174)"/><circle cx="6" cy="198" r="6" transform="rotate(0,6,198)"/><circle cx="18" cy="114" r="6" transform="rotate(0,18,114)"/><circle cx="18" cy="138" r="6" transform="rotate(0,18,138)"/><circle cx="18" cy="162" r="6" transform="rotate(0,18,162)"/><circle cx="18" cy="174" r="6" transform="rotate(0,18,174)"/><circle cx="18" cy="198" r="6" transform="rotate(0,18,198)"/><circle cx="30" cy="138" r="6" transform="rotate(0,30,138)"/><circle cx="30" cy="150" r="6" transform="rotate(0,30,150)"/><circle cx="30" cy="162" r="6" transform="rotate(0,30,162)"/><circle cx="30" cy="174" r="6" transform="rotate(0,30,174)"/><circle cx="30" cy="198" r="6" transform="rotate(0,30,198)"/><circle cx="42" cy="102" r="6" transform="rotate(0,42,102)"/><circle cx="42" cy="126" r="6" transform="rotate(0,42,126)"/><circle cx="42" cy="138" r="6" transform="rotate(0,42,138)"/><circle cx="42" cy="162" r="6" transform="rotate(0,42,162)"/><circle cx="42" cy="174" r="6" transform="rotate(0,42,174)"/><circle cx="54" cy="126" r="6" transform="rotate(0,54,126)"/><circle cx="54" cy="174" r="6" transform="rotate(0,54,174)"/><circle cx="66" cy="102" r="6" transform="rotate(0,66,102)"/><circle cx="66" cy="150" r="6" transform="rotate(0,66,150)"/><circle cx="66" cy="174" r="6" transform="rotate(0,66,174)"/><circle cx="78" cy="102" r="6" transform="rotate(0,78,102)"/><circle cx="78" cy="126" r="6" transform="rotate(0,78,126)"/><circle cx="78" cy="150" r="6" transform="rotate(0,78,150)"/><circle cx="78" cy="174" r="6" transform="rotate(0,78,174)"/><circle cx="78" cy="198" r="6" transform="rotate(0,78,198)"/><circle cx="90" cy="102" r="6" transform="rotate(0,90,102)"/><circle cx="90" cy="114" r="6" transform="rotate(0,90,114)"/><circle cx="90" cy="150" r="6" transform="rotate(0,90,150)"/><circle cx="90" cy="174" r="6" transform="rotate(0,90,174)"/><circle cx="90" cy="186" r="6" transform="rotate(0,90,186)"/><circle cx="90" cy="198" r="6" transform="rotate(0,90,198)"/><circle cx="102" cy="18" r="6" transform="rotate(0,102,18)"/><circle cx="102" cy="30" r="6" transform="rotate(0,102,30)"/><circle cx="102" cy="78" r="6" transform="rotate(0,102,78)"/><circle cx="102" cy="126" r="6" transform="rotate(0,102,126)"/><circle cx="102" cy="198" r="6" transform="rotate(0,102,198)"/><circle cx="102" cy="222" r="6" transform="rotate(0,102,222)"/><circle cx="102" cy="234" r="6" transform="rotate(0,102,234)"/><circle cx="102" cy="258" r="6" transform="rotate(0,102,258)"/><circle cx="114" cy="18" r="6" transform="rotate(0,114,18)"/><circle cx="114" cy="30" r="6" transform="rotate(0,114,30)"/><circle cx="114" cy="54" r="6" transform="rotate(0,114,54)"/><circle cx="114" cy="66" r="6" transform="rotate(0,114,66)"/><circle cx="114" cy="90" r="6" transform="rotate(0,114,90)"/><circle cx="114" cy="114" r="6" transform="rotate(0,114,114)"/><circle cx="114" cy="150" r="6" transform="rotate(0,114,150)"/><circle cx="114" cy="186" r="6" transform="rotate(0,114,186)"/><circle cx="114" cy="198" r="6" transform="rotate(0,114,198)"/><circle cx="114" cy="222" r="6" transform="rotate(0,114,222)"/><circle cx="114" cy="234" r="6" transform="rotate(0,114,234)"/><circle cx="114" cy="258" r="6" transform="rotate(0,114,258)"/><circle cx="114" cy="282" r="6" transform="rotate(0,114,282)"/><circle cx="114" cy="294" r="6" transform="rotate(0,114,294)"/><circle cx="126" cy="18" r="6" transform="rotate(0,126,18)"/><circle cx="126" cy="54" r="6" transform="rotate(0,126,54)"/><circle cx="126" cy="66" r="6" transform="rotate(0,126,66)"/><circle cx="126" cy="78" r="6" transform="rotate(0,126,78)"/><circle cx="126" cy="90" r="6" transform="rotate(0,126,90)"/><circle cx="126" cy="102" r="6" transform="rotate(0,126,102)"/><circle cx="126" cy="114" r="6" transform="rotate(0,126,114)"/><circle cx="126" cy="162" r="6" transform="rotate(0,126,162)"/><circle cx="126" cy="186" r="6" transform="rotate(0,126,186)"/><circle cx="126" cy="234" r="6" transform="rotate(0,126,234)"/><circle cx="126" cy="246" r="6" transform="rotate(0,126,246)"/><circle cx="126" cy="258" r="6" transform="rotate(0,126,258)"/><circle cx="126" cy="270" r="6" transform="rotate(0,126,270)"/><circle cx="126" cy="294" r="6" transform="rotate(0,126,294)"/><circle cx="138" cy="6" r="6" transform="rotate(0,138,6)"/><circle cx="138" cy="18" r="6" transform="rotate(0,138,18)"/><circle cx="138" cy="54" r="6" transform="rotate(0,138,54)"/><circle cx="138" cy="90" r="6" transform="rotate(0,138,90)"/><circle cx="138" cy="102" r="6" transform="rotate(0,138,102)"/><circle cx="138" cy="114" r="6" transform="rotate(0,138,114)"/><circle cx="138" cy="126" r="6" transform="rotate(0,138,126)"/><circle cx="138" cy="150" r="6" transform="rotate(0,138,150)"/><circle cx="138" cy="174" r="6" transform="rotate(0,138,174)"/><circle cx="138" cy="210" r="6" transform="rotate(0,138,210)"/><circle cx="138" cy="222" r="6" transform="rotate(0,138,222)"/><circle cx="138" cy="258" r="6" transform="rotate(0,138,258)"/><circle cx="150" cy="42" r="6" transform="rotate(0,150,42)"/><circle cx="150" cy="54" r="6" transform="rotate(0,150,54)"/><circle cx="150" cy="78" r="6" transform="rotate(0,150,78)"/><circle cx="150" cy="90" r="6" transform="rotate(0,150,90)"/><circle cx="150" cy="102" r="6" transform="rotate(0,150,102)"/><circle cx="150" cy="114" r="6" transform="rotate(0,150,114)"/><circle cx="150" cy="138" r="6" transform="rotate(0,150,138)"/><circle cx="150" cy="162" r="6" transform="rotate(0,150,162)"/><circle cx="150" cy="174" r="6" transform="rotate(0,150,174)"/><circle cx="150" cy="198" r="6" transform="rotate(0,150,198)"/><circle cx="150" cy="222" r="6" transform="rotate(0,150,222)"/><circle cx="150" cy="294" r="6" transform="rotate(0,150,294)"/><circle cx="162" cy="18" r="6" transform="rotate(0,162,18)"/><circle cx="162" cy="30" r="6" transform="rotate(0,162,30)"/><circle cx="162" cy="54" r="6" transform="rotate(0,162,54)"/><circle cx="162" cy="66" r="6" transform="rotate(0,162,66)"/><circle cx="162" cy="90" r="6" transform="rotate(0,162,90)"/><circle cx="162" cy="186" r="6" transform="rotate(0,162,186)"/><circle cx="162" cy="198" r="6" transform="rotate(0,162,198)"/><circle cx="162" cy="210" r="6" transform="rotate(0,162,210)"/><circle cx="162" cy="222" r="6" transform="rotate(0,162,222)"/><circle cx="162" cy="234" r="6" transform="rotate(0,162,234)"/><circle cx="162" cy="282" r="6" transform="rotate(0,162,282)"/><circle cx="162" cy="294" r="6" transform="rotate(0,162,294)"/><circle cx="174" cy="6" r="6" transform="rotate(0,174,6)"/><circle cx="174" cy="18" r="6" transform="rotate(0,174,18)"/><circle cx="174" cy="78" r="6" transform="rotate(0,174,78)"/><circle cx="174" cy="114" r="6" transform="rotate(0,174,114)"/><circle cx="174" cy="126" r="6" transform="rotate(0,174,126)"/><circle cx="174" cy="138" r="6" transform="rotate(0,174,138)"/><circle cx="174" cy="150" r="6" transform="rotate(0,174,150)"/><circle cx="174" cy="162" r="6" transform="rotate(0,174,162)"/><circle cx="174" cy="174" r="6" transform="rotate(0,174,174)"/><circle cx="174" cy="186" r="6" transform="rotate(0,174,186)"/><circle cx="174" cy="210" r="6" transform="rotate(0,174,210)"/><circle cx="174" cy="222" r="6" transform="rotate(0,174,222)"/><circle cx="174" cy="258" r="6" transform="rotate(0,174,258)"/><circle cx="174" cy="270" r="6" transform="rotate(0,174,270)"/><circle cx="174" cy="294" r="6" transform="rotate(0,174,294)"/><circle cx="186" cy="30" r="6" transform="rotate(0,186,30)"/><circle cx="186" cy="90" r="6" transform="rotate(0,186,90)"/><circle cx="186" cy="102" r="6" transform="rotate(0,186,102)"/><circle cx="186" cy="138" r="6" transform="rotate(0,186,138)"/><circle cx="186" cy="150" r="6" transform="rotate(0,186,150)"/><circle cx="186" cy="162" r="6" transform="rotate(0,186,162)"/><circle cx="186" cy="174" r="6" transform="rotate(0,186,174)"/><circle cx="186" cy="198" r="6" transform="rotate(0,186,198)"/><circle cx="186" cy="210" r="6" transform="rotate(0,186,210)"/><circle cx="186" cy="222" r="6" transform="rotate(0,186,222)"/><circle cx="186" cy="234" r="6" transform="rotate(0,186,234)"/><circle cx="186" cy="246" r="6" transform="rotate(0,186,246)"/><circle cx="186" cy="258" r="6" transform="rotate(0,186,258)"/><circle cx="198" cy="6" r="6" transform="rotate(0,198,6)"/><circle cx="198" cy="18" r="6" transform="rotate(0,198,18)"/><circle cx="198" cy="42" r="6" transform="rotate(0,198,42)"/><circle cx="198" cy="54" r="6" transform="rotate(0,198,54)"/><circle cx="198" cy="78" r="6" transform="rotate(0,198,78)"/><circle cx="198" cy="114" r="6" transform="rotate(0,198,114)"/><circle cx="198" cy="126" r="6" transform="rotate(0,198,126)"/><circle cx="198" cy="138" r="6" transform="rotate(0,198,138)"/><circle cx="198" cy="150" r="6" transform="rotate(0,198,150)"/><circle cx="198" cy="198" r="6" transform="rotate(0,198,198)"/><circle cx="198" cy="210" r="6" transform="rotate(0,198,210)"/><circle cx="198" cy="222" r="6" transform="rotate(0,198,222)"/><circle cx="198" cy="234" r="6" transform="rotate(0,198,234)"/><circle cx="198" cy="246" r="6" transform="rotate(0,198,246)"/><circle cx="198" cy="282" r="6" transform="rotate(0,198,282)"/><circle cx="210" cy="102" r="6" transform="rotate(0,210,102)"/><circle cx="210" cy="114" r="6" transform="rotate(0,210,114)"/><circle cx="210" cy="174" r="6" transform="rotate(0,210,174)"/><circle cx="210" cy="198" r="6" transform="rotate(0,210,198)"/><circle cx="210" cy="246" r="6" transform="rotate(0,210,246)"/><circle cx="210" cy="294" r="6" transform="rotate(0,210,294)"/><circle cx="222" cy="150" r="6" transform="rotate(0,222,150)"/><circle cx="222" cy="162" r="6" transform="rotate(0,222,162)"/><circle cx="222" cy="174" r="6" transform="rotate(0,222,174)"/><circle cx="222" cy="198" r="6" transform="rotate(0,222,198)"/><circle cx="222" cy="222" r="6" transform="rotate(0,222,222)"/><circle cx="222" cy="246" r="6" transform="rotate(0,222,246)"/><circle cx="222" cy="294" r="6" transform="rotate(0,222,294)"/><circle cx="234" cy="114" r="6" transform="rotate(0,234,114)"/><circle cx="234" cy="174" r="6" transform="rotate(0,234,174)"/><circle cx="234" cy="198" r="6" transform="rotate(0,234,198)"/><circle cx="234" cy="246" r="6" transform="rotate(0,234,246)"/><circle cx="246" cy="138" r="6" transform="rotate(0,246,138)"/><circle cx="246" cy="150" r="6" transform="rotate(0,246,150)"/><circle cx="246" cy="162" r="6" transform="rotate(0,246,162)"/><circle cx="246" cy="186" r="6" transform="rotate(0,246,186)"/><circle cx="246" cy="198" r="6" transform="rotate(0,246,198)"/><circle cx="246" cy="210" r="6" transform="rotate(0,246,210)"/><circle cx="246" cy="222" r="6" transform="rotate(0,246,222)"/><circle cx="246" cy="234" r="6" transform="rotate(0,246,234)"/><circle cx="246" cy="246" r="6" transform="rotate(0,246,246)"/><circle cx="246" cy="294" r="6" transform="rotate(0,246,294)"/><circle cx="258" cy="114" r="6" transform="rotate(0,258,114)"/><circle cx="258" cy="126" r="6" transform="rotate(0,258,126)"/><circle cx="258" cy="162" r="6" transform="rotate(0,258,162)"/><circle cx="258" cy="198" r="6" transform="rotate(0,258,198)"/><circle cx="258" cy="210" r="6" transform="rotate(0,258,210)"/><circle cx="258" cy="246" r="6" transform="rotate(0,258,246)"/><circle cx="258" cy="270" r="6" transform="rotate(0,258,270)"/><circle cx="258" cy="282" r="6" transform="rotate(0,258,282)"/><circle cx="270" cy="102" r="6" transform="rotate(0,270,102)"/><circle cx="270" cy="114" r="6" transform="rotate(0,270,114)"/><circle cx="270" cy="138" r="6" transform="rotate(0,270,138)"/><circle cx="270" cy="186" r="6" transform="rotate(0,270,186)"/><circle cx="270" cy="198" r="6" transform="rotate(0,270,198)"/><circle cx="270" cy="234" r="6" transform="rotate(0,270,234)"/><circle cx="270" cy="246" r="6" transform="rotate(0,270,246)"/><circle cx="270" cy="258" r="6" transform="rotate(0,270,258)"/><circle cx="270" cy="282" r="6" transform="rotate(0,270,282)"/><circle cx="270" cy="294" r="6" transform="rotate(0,270,294)"/><circle cx="282" cy="102" r="6" transform="rotate(0,282,102)"/><circle cx="282" cy="138" r="6" transform="rotate(0,282,138)"/><circle cx="282" cy="150" r="6" transform="rotate(0,282,150)"/><circle cx="282" cy="162" r="6" transform="rotate(0,282,162)"/><circle cx="282" cy="174" r="6" transform="rotate(0,282,174)"/><circle cx="282" cy="186" r="6" transform="rotate(0,282,186)"/><circle cx="282" cy="198" r="6" transform="rotate(0,282,198)"/><circle cx="282" cy="210" r="6" transform="rotate(0,282,210)"/><circle cx="282" cy="234" r="6" transform="rotate(0,282,234)"/><circle cx="282" cy="246" r="6" transform="rotate(0,282,246)"/><circle cx="294" cy="174" r="6" transform="rotate(0,294,174)"/><circle cx="294" cy="198" r="6" transform="rotate(0,294,198)"/><circle cx="294" cy="210" r="6" transform="rotate(0,294,210)"/><circle cx="294" cy="222" r="6" transform="rotate(0,294,222)"/><circle cx="294" cy="258" r="6" transform="rotate(0,294,258)"/><circle cx="294" cy="294" r="6" transform="rotate(0,294,294)"/><path clip-rule="evenodd" d="M 0 30v 24a 30 30, 0, 0, 0, 30 30h 24a 30 30, 0, 0, 0, 30 -30v -24a 30 30, 0, 0, 0, -30 -30h -24a 30 30, 0, 0, 0, -30 30M 30 12h 24a 18 18, 0, 0, 1, 18 18v 24a 18 18, 0, 0, 1, -18 18h -24a 18 18, 0, 0, 1, -18 -18v -24a 18 18, 0, 0, 1, 18 -18" transform="rotate(0,42,42)"/><circle cx="30" cy="30" r="6" transform="rotate(0,30,30)"/><circle cx="30" cy="42" r="6" transform="rotate(0,30,42)"/><circle cx="30" cy="54" r="6" transform="rotate(0,30,54)"/><circle cx="42" cy="30" r="6" transform="rotate(0,42,30)"/><circle cx="42" cy="42" r="6" transform="rotate(0,42,42)"/><circle cx="42" cy="54" r="6" transform="rotate(0,42,54)"/><circle cx="54" cy="30" r="6" transform="rotate(0,54,30)"/><circle cx="54" cy="42" r="6" transform="rotate(0,54,42)"/><circle cx="54" cy="54" r="6" transform="rotate(0,54,54)"/><path clip-rule="evenodd" d="M 216 30v 24a 30 30, 0, 0, 0, 30 30h 24a 30 30, 0, 0, 0, 30 -30v -24a 30 30, 0, 0, 0, -30 -30h -24a 30 30, 0, 0, 0, -30 30M 246 12h 24a 18 18, 0, 0, 1, 18 18v 24a 18 18, 0, 0, 1, -18 18h -24a 18 18, 0, 0, 1, -18 -18v -24a 18 18, 0, 0, 1, 18 -18" transform="rotate(90,258,42)"/><circle cx="246" cy="30" r="6" transform="rotate(0,246,30)"/><circle cx="246" cy="42" r="6" transform="rotate(0,246,42)"/><circle cx="246" cy="54" r="6" transform="rotate(0,246,54)"/><circle cx="258" cy="30" r="6" transform="rotate(0,258,30)"/><circle cx="258" cy="42" r="6" transform="rotate(0,258,42)"/><circle cx="258" cy="54" r="6" transform="rotate(0,258,54)"/><circle cx="270" cy="30" r="6" transform="rotate(0,270,30)"/><circle cx="270" cy="42" r="6" transform="rotate(0,270,42)"/><circle cx="270" cy="54" r="6" transform="rotate(0,270,54)"/><path clip-rule="evenodd" d="M 0 246v 24a 30 30, 0, 0, 0, 30 30h 24a 30 30, 0, 0, 0, 30 -30v -24a 30 30, 0, 0, 0, -30 -30h -24a 30 30, 0, 0, 0, -30 30M 30 228h 24a 18 18, 0, 0, 1, 18 18v 24a 18 18, 0, 0, 1, -18 18h -24a 18 18, 0, 0, 1, -18 -18v -24a 18 18, 0, 0, 1, 18 -18" transform="rotate(-90,42,258)"/><circle cx="30" cy="246" r="6" transform="rotate(0,30,246)"/><circle cx="30" cy="258" r="6" transform="rotate(0,30,258)"/><circle cx="30" cy="270" r="6" transform="rotate(0,30,270)"/><circle cx="42" cy="246" r="6" transform="rotate(0,42,246)"/><circle cx="42" cy="258" r="6" transform="rotate(0,42,258)"/><circle cx="42" cy="270" r="6" transform="rotate(0,42,270)"/><circle cx="54" cy="246" r="6" transform="rotate(0,54,246)"/><circle cx="54" cy="258" r="6" transform="rotate(0,54,258)"/><circle cx="54" cy="270" r="6" transform="rotate(0,54,270)"/></clipPath></defs><rect x="0" y="0" height="300" width="300" clip-path="url('#clip-path-background-color')" fill="#fff"/><rect x="0" y="0" height="300" width="300" clip-path="url('#clip-path-dot-color')" fill="#000000"/></svg>